<svg height="4638" width="3778" viewBox="0 0 3778 4638" preserveAspectRatio xmlns="http://www.w3.org/2000/svg">
<path d="M 110 130 L 114 126 L 2206 124 L 2212 123 L 3385 124 L 3389 128 L 3394 1562 L 3390 1566 L 3145 1566 L 3141 1562 L 3136 1202 L 1373 1206 L 1369 1202 L 1366 1097 L 1231 1105 L 1374 3215 L 1371 3221 L 1399 3328 L 1401 3333 L 1402 3341 L 1414 3387 L 1420 3391 L 1618 3339 L 1621 3333 L 1576 3154 L 1580 3150 L 1683 3123 L 1688 3121 L 1696 3120 L 2105 3016 L 2110 3014 L 2118 3013 L 2314 2963 L 2319 2961 L 2327 2960 L 2681 2870 L 2686 2868 L 2694 2867 L 2890 2817 L 2895 2815 L 2903 2814 L 3690 2611 L 3694 2615 L 3697 3234 L 3698 3240 L 3698 3721 L 3694 3725 L 3689 3727 L 3331 3818 L 3326 3820 L 3318 3821 L 2145 4119 L 2140 4121 L 2132 4122 L 2052 4143 L 2047 4145 L 2039 4146 L 1446 4298 L 1441 4300 L 1433 4301 L 1347 4323 L 1342 4325 L 1334 4326 L 1296 4336 L 1291 4338 L 1283 4339 L 856 4447 L 851 4449 L 843 4450 L 512 4534 L 507 4536 L 449 4549 L 445 4545 L 443 4535 L 401 3921 L 405 3917 L 574 3875 L 573 3868 L 409 3225 L 407 3220 L 406 3212 L 368 3064 L 359 3062 L 314 3066 L 310 3062 L 307 3051 Z" style="fill:black" id="path22" onclick="on_svg_click('22')" class="svg-path"/>
<path d="M 130 143 L 648 143 L 677 545 L 598 552 L 586 403 L 582 399 L 562 396 L 149 425 Z" style="fill:white" id="path23" onclick="on_svg_click('23')" class="svg-path"/>
<path d="M 150 446 L 567 417 L 583 639 L 565 643 L 165 671 L 151 450 Z" style="fill:white" id="path24" onclick="on_svg_click('24')" class="svg-path"/>
<path d="M 167 692 L 585 663 L 601 884 L 182 913 Z" style="fill:white" id="path25" onclick="on_svg_click('25')" class="svg-path"/>
<path d="M 183 934 L 603 905 L 618 1120 L 611 1122 L 198 1153 L 184 939 Z" style="fill:white" id="path26" onclick="on_svg_click('26')" class="svg-path"/>
<path d="M 199 1174 L 617 1143 L 621 1147 L 636 1368 L 631 1371 L 218 1400 L 214 1385 L 200 1176 Z" style="fill:white" id="path27" onclick="on_svg_click('27')" class="svg-path"/>
<path d="M 216 1421 L 638 1392 L 654 1613 L 233 1639 Z" style="fill:white" id="path28" onclick="on_svg_click('28')" class="svg-path"/>
<path d="M 232 1660 L 654 1634 L 656 1642 L 671 1849 L 663 1853 L 247 1880 Z" style="fill:white" id="path29" onclick="on_svg_click('29')" class="svg-path"/>
<path d="M 248 1901 L 669 1874 L 674 1877 L 689 2093 L 263 2122 L 249 1903 Z" style="fill:white" id="path210" onclick="on_svg_click('210')" class="svg-path"/>
<path d="M 265 2143 L 688 2114 L 691 2125 L 706 2330 L 701 2333 L 279 2363 Z" style="fill:white" id="path211" onclick="on_svg_click('211')" class="svg-path"/>
<path d="M 281 2384 L 708 2354 L 724 2574 L 295 2602 Z" style="fill:white" id="path212" onclick="on_svg_click('212')" class="svg-path"/>
<path d="M 297 2623 L 726 2595 L 741 2813 L 316 2839 L 311 2825 Z" style="fill:white" id="path213" onclick="on_svg_click('213')" class="svg-path"/>
<path d="M 313 2860 L 741 2834 L 743 2841 L 754 2988 L 760 3008 L 761 3016 L 780 3094 L 775 3096 L 419 3185 L 417 3180 L 416 3173 L 385 3051 L 382 3046 L 377 3043 L 365 3042 L 330 3045 L 325 3032 Z" style="fill:white" id="path214" onclick="on_svg_click('214')" class="svg-path"/>
<path d="M 421 3932 L 742 3855 L 747 3857 L 774 3963 L 775 3970 L 859 4302 L 861 4307 L 862 4315 L 888 4418 L 851 4428 L 846 4430 L 838 4431 L 752 4453 L 747 4455 L 739 4456 L 463 4526 L 461 4515 Z" style="fill:white" id="path215" onclick="on_svg_click('215')" class="svg-path"/>
<path d="M 424 3206 L 429 3204 L 439 3203 L 781 3117 L 787 3117 L 787 3123 L 793 3146 L 795 3151 L 796 3159 L 813 3228 L 815 3233 L 816 3241 L 827 3285 L 829 3290 L 830 3298 L 847 3367 L 849 3372 L 852 3387 L 849 3392 L 494 3481 L 491 3467 L 489 3462 L 488 3454 L 428 3220 L 426 3215 L 425 3208 Z" style="fill:white" id="path216" onclick="on_svg_click('216')" class="svg-path"/>
<path d="M 499 3501 L 507 3500 L 802 3427 L 899 3793 L 892 3796 L 598 3867 L 593 3869 L 592 3862 L 500 3503 Z" style="fill:white" id="path217" onclick="on_svg_click('217')" class="svg-path"/>
<path d="M 599 573 L 678 566 L 683 623 L 687 627 L 704 630 L 1172 598 L 1181 732 L 1185 736 L 1485 738 L 1485 913 L 1215 914 L 1210 858 L 1206 854 L 1189 852 L 1076 859 L 1071 751 L 1065 738 L 1061 734 L 1056 731 L 1052 727 L 1047 724 L 1010 718 L 762 735 L 757 738 L 754 750 L 756 755 L 784 1115 L 761 1116 L 757 1120 L 754 1137 L 832 2329 L 831 2337 L 874 2980 L 876 2985 L 876 2991 L 879 3007 L 881 3012 L 881 3018 L 904 3124 L 906 3129 L 918 3175 L 920 3180 L 956 3313 L 958 3318 L 962 3322 L 971 3325 L 973 3330 L 974 3338 L 1082 3747 L 1083 3755 L 1087 3759 L 1099 3761 L 1147 3749 L 1152 3747 L 1160 3746 L 1385 3691 L 1390 3689 L 1398 3688 L 1476 3669 L 1481 3666 L 1703 3611 L 1708 3609 L 1717 3608 L 1822 3582 L 1827 3580 L 1835 3579 L 1879 3568 L 1884 3566 L 1892 3565 L 1961 3548 L 1966 3546 L 1974 3545 L 2018 3534 L 2023 3532 L 2031 3531 L 2218 3485 L 2223 3483 L 2231 3482 L 2275 3471 L 2280 3469 L 2288 3468 L 2418 3436 L 2423 3434 L 2431 3433 L 2475 3422 L 2480 3420 L 2488 3419 L 2618 3387 L 2623 3385 L 2631 3384 L 2675 3373 L 2680 3371 L 2688 3370 L 2818 3338 L 2823 3336 L 2831 3335 L 2875 3324 L 2880 3322 L 2888 3321 L 3018 3289 L 3023 3287 L 3031 3286 L 3075 3275 L 3080 3273 L 3088 3272 L 3132 3261 L 3137 3259 L 3145 3258 L 3275 3226 L 3280 3224 L 3288 3223 L 3332 3212 L 3337 3210 L 3345 3209 L 3475 3177 L 3480 3175 L 3488 3174 L 3509 3168 L 3512 3163 L 3513 3153 L 3502 3104 L 3511 3103 L 3563 3090 L 3568 3088 L 3576 3087 L 3620 3076 L 3625 3074 L 3678 3062 L 3678 3229 L 3582 3253 L 3577 3255 L 3569 3256 L 2609 3500 L 2604 3502 L 2596 3503 L 2188 3606 L 2180 3609 L 2014 3651 L 2009 3653 L 1978 3660 L 1973 3662 L 1955 3665 L 1950 3667 L 824 3945 L 819 3947 L 796 3952 L 792 3946 L 767 3848 L 917 3812 L 921 3808 L 923 3798 L 859 3557 L 857 3552 L 823 3425 L 827 3420 L 870 3409 L 874 3405 L 876 3395 L 849 3284 L 847 3279 L 846 3271 L 780 3002 L 778 2997 L 775 2981 L 600 576 Z" style="fill:white" id="path218" onclick="on_svg_click('218')" class="svg-path"/>
<path d="M 669 143 L 1143 143 L 1154 311 L 681 311 Z" style="fill:white" id="path219" onclick="on_svg_click('219')" class="svg-path"/>
<path d="M 682 331 L 1155 331 L 1171 577 L 702 609 L 683 334 Z" style="fill:white" id="path220" onclick="on_svg_click('220')" class="svg-path"/>
<path d="M 775 1135 L 1211 1108 L 1226 1332 L 790 1362 Z" style="fill:white" id="path221" onclick="on_svg_click('221')" class="svg-path"/>
<path d="M 777 755 L 1025 739 L 1039 742 L 1047 750 L 1049 756 L 1055 861 L 786 877 Z" style="fill:white" id="path222" onclick="on_svg_click('222')" class="svg-path"/>
<path d="M 788 899 L 1191 873 L 1209 1085 L 1202 1087 L 804 1113 Z" style="fill:white" id="path223" onclick="on_svg_click('223')" class="svg-path"/>
<path d="M 791 1383 L 1228 1353 L 1243 1573 L 805 1602 Z" style="fill:white" id="path224" onclick="on_svg_click('224')" class="svg-path"/>
<path d="M 798 3973 L 806 3972 L 1024 3918 L 1025 3926 L 1042 3993 L 1044 3998 L 1051 4029 L 1053 4034 L 1054 4042 L 1105 4246 L 1107 4251 L 1114 4282 L 1116 4287 L 1117 4295 L 1132 4354 L 1127 4358 L 1096 4366 L 1091 4368 L 1083 4369 L 914 4412 L 908 4411 L 870 4257 L 868 4252 L 867 4244 L 799 3975 Z" style="fill:white" id="path225" onclick="on_svg_click('225')" class="svg-path"/>
<path d="M 806 1623 L 1242 1594 L 1245 1610 L 1259 1812 L 824 1841 L 820 1823 L 807 1625 Z" style="fill:white" id="path226" onclick="on_svg_click('226')" class="svg-path"/>
<path d="M 822 1862 L 1256 1833 L 1261 1845 L 1275 2050 L 1267 2053 L 836 2084 L 823 1870 L 822 1864 Z" style="fill:white" id="path227" onclick="on_svg_click('227')" class="svg-path"/>
<path d="M 838 2105 L 1273 2074 L 1277 2079 L 1292 2293 L 852 2322 Z" style="fill:white" id="path228" onclick="on_svg_click('228')" class="svg-path"/>
<path d="M 853 2342 L 1291 2314 L 1294 2328 L 1308 2533 L 1301 2535 L 868 2566 Z" style="fill:white" id="path229" onclick="on_svg_click('229')" class="svg-path"/>
<path d="M 869 2587 L 1307 2556 L 1310 2562 L 1325 2775 L 883 2804 Z" style="fill:white" id="path230" onclick="on_svg_click('230')" class="svg-path"/>
<path d="M 884 2825 L 1326 2796 L 1354 3204 L 1349 3206 L 1341 3207 L 1295 3219 L 1290 3221 L 1282 3222 L 978 3301 L 974 3295 L 911 3058 L 909 3053 L 901 3006 L 899 3001 L 899 2995 L 896 2979 L 894 2974 L 885 2827 Z" style="fill:white" id="path231" onclick="on_svg_click('231')" class="svg-path"/>
<path d="M 991 3320 L 1101 3738 L 1194 3716 L 1199 3714 L 1232 3707 L 1235 3700 L 1129 3290 L 1127 3285 L 1119 3286 L 993 3319 Z" style="fill:white" id="path232" onclick="on_svg_click('232')" class="svg-path"/>
<path d="M 1044 3912 L 1050 3912 L 1265 3858 L 1294 3973 L 1296 3978 L 1297 3986 L 1376 4296 L 1368 4297 L 1348 4303 L 1341 4304 L 1336 4306 L 1328 4307 L 1195 4341 L 1190 4343 L 1182 4344 L 1153 4352 L 1152 4344 L 1136 4281 L 1134 4276 L 1127 4245 L 1125 4240 L 1124 4232 L 1082 4064 L 1080 4059 L 1073 4028 L 1071 4023 L 1070 4015 L 1045 3914 Z" style="fill:white" id="path233" onclick="on_svg_click('233')" class="svg-path"/>
<path d="M 1147 3279 L 1353 3226 L 1354 3234 L 1380 3333 L 1382 3338 L 1383 3346 L 1397 3402 L 1399 3407 L 1434 3542 L 1438 3546 L 1448 3548 L 1452 3544 L 1454 3532 L 1422 3410 L 1429 3409 L 1626 3357 L 1627 3364 L 1686 3593 L 1394 3665 L 1388 3668 L 1302 3689 L 1297 3691 L 1256 3700 L 1225 3578 L 1223 3573 L 1222 3565 L 1172 3373 L 1170 3368 L 1169 3360 L 1149 3284 Z" style="fill:white" id="path234" onclick="on_svg_click('234')" class="svg-path"/>
<path d="M 1164 143 L 1939 143 L 1939 911 L 1505 913 L 1505 724 L 1501 720 L 1200 718 Z" style="fill:white" id="path235" onclick="on_svg_click('235')" class="svg-path"/>
<path d="M 1217 934 L 3374 926 L 3374 1182 L 1385 1187 L 1385 1083 L 1381 1079 L 1365 1077 L 1230 1085 Z" style="fill:white" id="path236" onclick="on_svg_click('236')" class="svg-path"/>
<path d="M 1285 3853 L 1493 3802 L 1604 4236 L 1599 4238 L 1416 4285 L 1411 4287 L 1396 4290 L 1394 4276 L 1301 3913 L 1299 3908 L 1298 3900 L 1286 3855 Z" style="fill:white" id="path237" onclick="on_svg_click('237')" class="svg-path"/>
<path d="M 1513 3797 L 1518 3795 L 1526 3794 L 1725 3745 L 1836 4178 L 1831 4180 L 1823 4181 L 1627 4231 L 1624 4226 L 1578 4047 L 1576 4042 L 1575 4034 L 1535 3880 L 1533 3875 L 1532 3867 L 1514 3799 Z" style="fill:white" id="path238" onclick="on_svg_click('238')" class="svg-path"/>
<path d="M 1598 3164 L 1606 3163 L 1815 3110 L 1916 3508 L 1918 3513 L 1923 3535 L 1918 3537 L 1735 3581 L 1730 3583 L 1706 3588 L 1705 3580 L 1695 3542 L 1693 3537 L 1692 3529 Z" style="fill:white" id="path239" onclick="on_svg_click('239')" class="svg-path"/>
<path d="M 1747 3741 L 1850 3715 L 1855 3713 L 1863 3712 L 1948 3690 L 1953 3692 L 1954 3700 L 2062 4116 L 2060 4121 L 2053 4122 L 1856 4172 L 1823 4037 L 1820 4029 L 1774 3845 L 1772 3840 L 1771 3832 L 1748 3743 Z" style="fill:white" id="path240" onclick="on_svg_click('240')" class="svg-path"/>
<path d="M 1835 3104 L 1842 3103 L 2039 3053 L 2088 3252 L 2090 3257 L 2091 3265 L 2122 3389 L 2124 3394 L 2125 3402 L 2144 3478 L 2139 3482 L 2074 3498 L 2069 3500 L 2061 3501 L 2017 3512 L 2012 3514 L 2004 3515 L 1947 3529 L 1942 3526 L 1923 3448 L 1921 3443 L 1920 3435 L 1836 3106 Z" style="fill:white" id="path241" onclick="on_svg_click('241')" class="svg-path"/>
<path d="M 1959 143 L 3373 143 L 3374 652 L 3370 672 L 3374 906 L 1959 911 Z" style="fill:white" id="path242" onclick="on_svg_click('242')" class="svg-path"/>
<path d="M 1972 3684 L 1977 3682 L 2137 3643 L 2142 3641 L 2182 3632 L 2186 3637 L 2203 3704 L 2205 3709 L 2206 3717 L 2237 3839 L 2239 3844 L 2240 3852 L 2281 4014 L 2283 4019 L 2284 4027 L 2292 4057 L 2289 4062 L 2140 4100 L 2135 4102 L 2127 4103 L 2089 4113 L 2083 4113 L 2082 4106 Z" style="fill:white" id="path243" onclick="on_svg_click('243')" class="svg-path"/>
<path d="M 2059 3047 L 2068 3046 L 2264 2996 L 2268 3000 L 2376 3422 L 2372 3426 L 2274 3449 L 2269 3451 L 2261 3452 L 2217 3463 L 2212 3465 L 2168 3475 L 2164 3468 L 2118 3283 L 2116 3278 L 2115 3270 L 2075 3110 L 2073 3105 L 2072 3097 L 2060 3049 Z" style="fill:white" id="path244" onclick="on_svg_click('244')" class="svg-path"/>
<path d="M 2205 3624 L 2213 3623 L 2233 3617 L 2241 3616 L 2406 3574 L 2411 3577 L 2522 4002 L 2515 4005 L 2463 4018 L 2458 4020 L 2450 4021 L 2317 4055 L 2313 4051 L 2303 4013 L 2301 4008 L 2300 4000 L 2292 3969 L 2290 3964 L 2289 3956 L 2259 3838 L 2257 3833 L 2256 3825 L 2225 3703 L 2223 3698 L 2222 3690 L 2207 3631 L 2205 3626 Z" style="fill:white" id="path245" onclick="on_svg_click('245')" class="svg-path"/>
<path d="M 2287 2990 L 2301 3044 L 2303 3049 L 2304 3057 L 2368 3306 L 2370 3311 L 2371 3319 L 2396 3416 L 2404 3418 L 2417 3414 L 2425 3413 L 2469 3402 L 2474 3400 L 2482 3399 L 2526 3388 L 2531 3386 L 2539 3385 L 2604 3369 L 2604 3361 L 2580 3267 L 2578 3262 L 2577 3254 L 2513 3005 L 2511 3000 L 2510 2992 L 2496 2939 L 2490 2938 L 2477 2942 L 2469 2943 L 2289 2989 Z" style="fill:white" id="path246" onclick="on_svg_click('246')" class="svg-path"/>
<path d="M 2430 3567 L 2437 3566 L 2638 3515 L 2643 3518 L 2754 3945 L 2731 3950 L 2726 3952 L 2718 3953 L 2543 3998 L 2541 3993 L 2540 3985 L 2432 3571 Z" style="fill:white" id="path247" onclick="on_svg_click('247')" class="svg-path"/>
<path d="M 2515 2932 L 2517 2937 L 2518 2944 L 2598 3256 L 2600 3261 L 2601 3269 L 2624 3358 L 2626 3363 L 2669 3353 L 2674 3351 L 2682 3350 L 2726 3339 L 2731 3337 L 2739 3336 L 2832 3313 L 2834 3306 L 2737 2922 L 2735 2917 L 2734 2909 L 2726 2879 L 2718 2880 L 2520 2930 Z" style="fill:white" id="path248" onclick="on_svg_click('248')" class="svg-path"/>
<path d="M 2662 3508 L 2671 3507 L 2823 3468 L 2828 3466 L 2836 3465 L 2866 3457 L 2871 3460 L 2885 3514 L 2887 3519 L 2888 3527 L 2919 3647 L 2921 3652 L 2922 3660 L 2953 3780 L 2955 3785 L 2956 3793 L 2979 3882 L 2981 3887 L 2786 3936 L 2781 3938 L 2775 3939 L 2773 3934 L 2772 3926 L 2702 3658 L 2700 3653 L 2699 3645 L 2663 3510 Z" style="fill:white" id="path249" onclick="on_svg_click('249')" class="svg-path"/>
<path d="M 2746 2873 L 2754 2872 L 2895 2836 L 2900 2834 L 2908 2833 L 2953 2821 L 2955 2826 L 2956 2833 L 3021 3090 L 3023 3095 L 3024 3103 L 3062 3253 L 3057 3257 L 2931 3288 L 2926 3290 L 2918 3291 L 2874 3302 L 2869 3304 L 2861 3305 L 2855 3307 L 2854 3300 L 2757 2916 L 2755 2911 L 2748 2880 L 2746 2875 Z" style="fill:white" id="path250" onclick="on_svg_click('250')" class="svg-path"/>
<path d="M 2890 3451 L 2939 3641 L 2941 3646 L 2942 3654 L 2973 3774 L 2975 3779 L 2976 3787 L 3001 3882 L 3207 3830 L 3205 3825 L 3204 3817 L 3096 3400 L 3087 3400 L 2895 3449 Z" style="fill:white" id="path251" onclick="on_svg_click('251')" class="svg-path"/>
<path d="M 2973 2816 L 2978 2814 L 2986 2813 L 3180 2764 L 3184 2769 L 3188 2785 L 3190 2790 L 3191 2798 L 3291 3200 L 3286 3202 L 3278 3203 L 3131 3239 L 3126 3241 L 3118 3242 L 3083 3251 L 3082 3243 L 2985 2859 L 2983 2854 L 2976 2823 Z" style="fill:white" id="path252" onclick="on_svg_click('252')" class="svg-path"/>
<path d="M 3115 3393 L 3123 3392 L 3201 3372 L 3206 3370 L 3214 3369 L 3324 3341 L 3329 3344 L 3330 3352 L 3436 3766 L 3438 3771 L 3433 3773 L 3427 3773 L 3326 3799 L 3321 3801 L 3313 3802 L 3227 3824 L 3225 3819 L 3224 3811 L 3194 3695 L 3192 3690 L 3191 3682 L 3141 3490 L 3139 3485 L 3138 3477 L 3116 3395 Z" style="fill:white" id="path253" onclick="on_svg_click('253')" class="svg-path"/>
<path d="M 3155 1203 L 3374 1202 L 3375 1549 L 3157 1547 Z" style="fill:white" id="path254" onclick="on_svg_click('254')" class="svg-path"/>
<path d="M 3203 2757 L 3262 2743 L 3267 2741 L 3275 2740 L 3526 2676 L 3531 2674 L 3554 2669 L 3558 2665 L 3672 2635 L 3678 3040 L 3619 3054 L 3614 3056 L 3606 3057 L 3562 3068 L 3557 3070 L 3549 3071 L 3486 3087 L 3482 3091 L 3479 3102 L 3489 3146 L 3489 3152 L 3388 3176 L 3383 3178 L 3375 3179 L 3331 3190 L 3326 3192 L 3311 3195 L 3306 3172 L 3304 3167 L 3303 3159 Z" style="fill:white" id="path255" onclick="on_svg_click('255')" class="svg-path"/>
<path d="M 3347 3334 L 3355 3333 L 3678 3251 L 3679 3710 L 3649 3717 L 3644 3719 L 3636 3720 L 3458 3765 L 3456 3760 L 3455 3752 L 3453 3747 L 3452 3739 L 3349 3338 Z" style="fill:white" id="path256" onclick="on_svg_click('256')" class="svg-path"/>

<text
    x="1904"
    y="2336"
    font-size="50"
    font-weight="bold"
    dominant-baseline="middle"
    text-anchor="middle"
    id="text22"
    class="svg-text"
    onclick="on_svg_click('22')"
>
</text>

<text
    x="383"
    y="292"
    font-size="50"
    font-weight="bold"
    dominant-baseline="middle"
    text-anchor="middle"
    id="text23"
    class="svg-text"
    onclick="on_svg_click('23')"
>
</text>

<text
    x="366"
    y="544"
    font-size="50"
    font-weight="bold"
    dominant-baseline="middle"
    text-anchor="middle"
    id="text24"
    class="svg-text"
    onclick="on_svg_click('24')"
>
</text>

<text
    x="384"
    y="788"
    font-size="50"
    font-weight="bold"
    dominant-baseline="middle"
    text-anchor="middle"
    id="text25"
    class="svg-text"
    onclick="on_svg_click('25')"
>
</text>

<text
    x="400"
    y="1029"
    font-size="50"
    font-weight="bold"
    dominant-baseline="middle"
    text-anchor="middle"
    id="text26"
    class="svg-text"
    onclick="on_svg_click('26')"
>
</text>

<text
    x="417"
    y="1271"
    font-size="50"
    font-weight="bold"
    dominant-baseline="middle"
    text-anchor="middle"
    id="text27"
    class="svg-text"
    onclick="on_svg_click('27')"
>
</text>

<text
    x="435"
    y="1515"
    font-size="50"
    font-weight="bold"
    dominant-baseline="middle"
    text-anchor="middle"
    id="text28"
    class="svg-text"
    onclick="on_svg_click('28')"
>
</text>

<text
    x="451"
    y="1757"
    font-size="50"
    font-weight="bold"
    dominant-baseline="middle"
    text-anchor="middle"
    id="text29"
    class="svg-text"
    onclick="on_svg_click('29')"
>
</text>

<text
    x="468"
    y="1998"
    font-size="50"
    font-weight="bold"
    dominant-baseline="middle"
    text-anchor="middle"
    id="text210"
    class="svg-text"
    onclick="on_svg_click('210')"
>
</text>

<text
    x="485"
    y="2238"
    font-size="50"
    font-weight="bold"
    dominant-baseline="middle"
    text-anchor="middle"
    id="text211"
    class="svg-text"
    onclick="on_svg_click('211')"
>
</text>

<text
    x="502"
    y="2478"
    font-size="50"
    font-weight="bold"
    dominant-baseline="middle"
    text-anchor="middle"
    id="text212"
    class="svg-text"
    onclick="on_svg_click('212')"
>
</text>

<text
    x="519"
    y="2717"
    font-size="50"
    font-weight="bold"
    dominant-baseline="middle"
    text-anchor="middle"
    id="text213"
    class="svg-text"
    onclick="on_svg_click('213')"
>
</text>

<text
    x="546"
    y="3009"
    font-size="50"
    font-weight="bold"
    dominant-baseline="middle"
    text-anchor="middle"
    id="text214"
    class="svg-text"
    onclick="on_svg_click('214')"
>
</text>

<text
    x="628"
    y="4200"
    font-size="50"
    font-weight="bold"
    dominant-baseline="middle"
    text-anchor="middle"
    id="text215"
    class="svg-text"
    onclick="on_svg_click('215')"
>
</text>

<text
    x="638"
    y="3299"
    font-size="50"
    font-weight="bold"
    dominant-baseline="middle"
    text-anchor="middle"
    id="text216"
    class="svg-text"
    onclick="on_svg_click('216')"
>
</text>

<text
    x="699"
    y="3648"
    font-size="50"
    font-weight="bold"
    dominant-baseline="middle"
    text-anchor="middle"
    id="text217"
    class="svg-text"
    onclick="on_svg_click('217')"
>
</text>

<text
    x="2138"
    y="2259"
    font-size="50"
    font-weight="bold"
    dominant-baseline="middle"
    text-anchor="middle"
    id="text218"
    class="svg-text"
    onclick="on_svg_click('218')"
>
</text>

<text
    x="911"
    y="227"
    font-size="50"
    font-weight="bold"
    dominant-baseline="middle"
    text-anchor="middle"
    id="text219"
    class="svg-text"
    onclick="on_svg_click('219')"
>
</text>

<text
    x="926"
    y="470"
    font-size="50"
    font-weight="bold"
    dominant-baseline="middle"
    text-anchor="middle"
    id="text220"
    class="svg-text"
    onclick="on_svg_click('220')"
>
</text>

<text
    x="1000"
    y="1235"
    font-size="50"
    font-weight="bold"
    dominant-baseline="middle"
    text-anchor="middle"
    id="text221"
    class="svg-text"
    onclick="on_svg_click('221')"
>
</text>

<text
    x="916"
    y="808"
    font-size="50"
    font-weight="bold"
    dominant-baseline="middle"
    text-anchor="middle"
    id="text222"
    class="svg-text"
    onclick="on_svg_click('222')"
>
</text>

<text
    x="998"
    y="993"
    font-size="50"
    font-weight="bold"
    dominant-baseline="middle"
    text-anchor="middle"
    id="text223"
    class="svg-text"
    onclick="on_svg_click('223')"
>
</text>

<text
    x="1017"
    y="1477"
    font-size="50"
    font-weight="bold"
    dominant-baseline="middle"
    text-anchor="middle"
    id="text224"
    class="svg-text"
    onclick="on_svg_click('224')"
>
</text>

<text
    x="965"
    y="4165"
    font-size="50"
    font-weight="bold"
    dominant-baseline="middle"
    text-anchor="middle"
    id="text225"
    class="svg-text"
    onclick="on_svg_click('225')"
>
</text>

<text
    x="1032"
    y="1717"
    font-size="50"
    font-weight="bold"
    dominant-baseline="middle"
    text-anchor="middle"
    id="text226"
    class="svg-text"
    onclick="on_svg_click('226')"
>
</text>

<text
    x="1048"
    y="1958"
    font-size="50"
    font-weight="bold"
    dominant-baseline="middle"
    text-anchor="middle"
    id="text227"
    class="svg-text"
    onclick="on_svg_click('227')"
>
</text>

<text
    x="1065"
    y="2198"
    font-size="50"
    font-weight="bold"
    dominant-baseline="middle"
    text-anchor="middle"
    id="text228"
    class="svg-text"
    onclick="on_svg_click('228')"
>
</text>

<text
    x="1080"
    y="2440"
    font-size="50"
    font-weight="bold"
    dominant-baseline="middle"
    text-anchor="middle"
    id="text229"
    class="svg-text"
    onclick="on_svg_click('229')"
>
</text>

<text
    x="1097"
    y="2680"
    font-size="50"
    font-weight="bold"
    dominant-baseline="middle"
    text-anchor="middle"
    id="text230"
    class="svg-text"
    onclick="on_svg_click('230')"
>
</text>

<text
    x="1119"
    y="3048"
    font-size="50"
    font-weight="bold"
    dominant-baseline="middle"
    text-anchor="middle"
    id="text231"
    class="svg-text"
    onclick="on_svg_click('231')"
>
</text>

<text
    x="1113"
    y="3511"
    font-size="50"
    font-weight="bold"
    dominant-baseline="middle"
    text-anchor="middle"
    id="text232"
    class="svg-text"
    onclick="on_svg_click('232')"
>
</text>

<text
    x="1210"
    y="4105"
    font-size="50"
    font-weight="bold"
    dominant-baseline="middle"
    text-anchor="middle"
    id="text233"
    class="svg-text"
    onclick="on_svg_click('233')"
>
</text>

<text
    x="1300"
    y="3443"
    font-size="50"
    font-weight="bold"
    dominant-baseline="middle"
    text-anchor="middle"
    id="text234"
    class="svg-text"
    onclick="on_svg_click('234')"
>
</text>

<text
    x="1551"
    y="458"
    font-size="50"
    font-weight="bold"
    dominant-baseline="middle"
    text-anchor="middle"
    id="text235"
    class="svg-text"
    onclick="on_svg_click('235')"
>
</text>

<text
    x="2295"
    y="1056"
    font-size="50"
    font-weight="bold"
    dominant-baseline="middle"
    text-anchor="middle"
    id="text236"
    class="svg-text"
    onclick="on_svg_click('236')"
>
</text>

<text
    x="1444"
    y="4046"
    font-size="50"
    font-weight="bold"
    dominant-baseline="middle"
    text-anchor="middle"
    id="text237"
    class="svg-text"
    onclick="on_svg_click('237')"
>
</text>

<text
    x="1674"
    y="3988"
    font-size="50"
    font-weight="bold"
    dominant-baseline="middle"
    text-anchor="middle"
    id="text238"
    class="svg-text"
    onclick="on_svg_click('238')"
>
</text>

<text
    x="1760"
    y="3349"
    font-size="50"
    font-weight="bold"
    dominant-baseline="middle"
    text-anchor="middle"
    id="text239"
    class="svg-text"
    onclick="on_svg_click('239')"
>
</text>

<text
    x="1904"
    y="3931"
    font-size="50"
    font-weight="bold"
    dominant-baseline="middle"
    text-anchor="middle"
    id="text240"
    class="svg-text"
    onclick="on_svg_click('240')"
>
</text>

<text
    x="1989"
    y="3291"
    font-size="50"
    font-weight="bold"
    dominant-baseline="middle"
    text-anchor="middle"
    id="text241"
    class="svg-text"
    onclick="on_svg_click('241')"
>
</text>

<text
    x="2666"
    y="527"
    font-size="50"
    font-weight="bold"
    dominant-baseline="middle"
    text-anchor="middle"
    id="text242"
    class="svg-text"
    onclick="on_svg_click('242')"
>
</text>

<text
    x="2132"
    y="3872"
    font-size="50"
    font-weight="bold"
    dominant-baseline="middle"
    text-anchor="middle"
    id="text243"
    class="svg-text"
    onclick="on_svg_click('243')"
>
</text>

<text
    x="2217"
    y="3235"
    font-size="50"
    font-weight="bold"
    dominant-baseline="middle"
    text-anchor="middle"
    id="text244"
    class="svg-text"
    onclick="on_svg_click('244')"
>
</text>

<text
    x="2363"
    y="3814"
    font-size="50"
    font-weight="bold"
    dominant-baseline="middle"
    text-anchor="middle"
    id="text245"
    class="svg-text"
    onclick="on_svg_click('245')"
>
</text>

<text
    x="2445"
    y="3178"
    font-size="50"
    font-weight="bold"
    dominant-baseline="middle"
    text-anchor="middle"
    id="text246"
    class="svg-text"
    onclick="on_svg_click('246')"
>
</text>

<text
    x="2592"
    y="3756"
    font-size="50"
    font-weight="bold"
    dominant-baseline="middle"
    text-anchor="middle"
    id="text247"
    class="svg-text"
    onclick="on_svg_click('247')"
>
</text>

<text
    x="2674"
    y="3121"
    font-size="50"
    font-weight="bold"
    dominant-baseline="middle"
    text-anchor="middle"
    id="text248"
    class="svg-text"
    onclick="on_svg_click('248')"
>
</text>

<text
    x="2821"
    y="3698"
    font-size="50"
    font-weight="bold"
    dominant-baseline="middle"
    text-anchor="middle"
    id="text249"
    class="svg-text"
    onclick="on_svg_click('249')"
>
</text>

<text
    x="2904"
    y="3064"
    font-size="50"
    font-weight="bold"
    dominant-baseline="middle"
    text-anchor="middle"
    id="text250"
    class="svg-text"
    onclick="on_svg_click('250')"
>
</text>

<text
    x="3048"
    y="3641"
    font-size="50"
    font-weight="bold"
    dominant-baseline="middle"
    text-anchor="middle"
    id="text251"
    class="svg-text"
    onclick="on_svg_click('251')"
>
</text>

<text
    x="3132"
    y="3007"
    font-size="50"
    font-weight="bold"
    dominant-baseline="middle"
    text-anchor="middle"
    id="text252"
    class="svg-text"
    onclick="on_svg_click('252')"
>
</text>

<text
    x="3276"
    y="3582"
    font-size="50"
    font-weight="bold"
    dominant-baseline="middle"
    text-anchor="middle"
    id="text253"
    class="svg-text"
    onclick="on_svg_click('253')"
>
</text>

<text
    x="3265"
    y="1375"
    font-size="50"
    font-weight="bold"
    dominant-baseline="middle"
    text-anchor="middle"
    id="text254"
    class="svg-text"
    onclick="on_svg_click('254')"
>
</text>

<text
    x="3460"
    y="2905"
    font-size="50"
    font-weight="bold"
    dominant-baseline="middle"
    text-anchor="middle"
    id="text255"
    class="svg-text"
    onclick="on_svg_click('255')"
>
</text>

<text
    x="3533"
    y="3518"
    font-size="50"
    font-weight="bold"
    dominant-baseline="middle"
    text-anchor="middle"
    id="text256"
    class="svg-text"
    onclick="on_svg_click('256')"
>
</text>
</svg>
