<svg height="2947" width="3138" viewBox="0 0 3138 2947" xmlns="http://www.w3.org/2000/svg">
<path d="M 112 607 L 116 603 L 128 601 L 224 596 L 225 586 L 191 124 L 195 120 L 205 118 L 537 93 L 1732 77 L 1767 83 L 1772 85 L 1780 86 L 1806 94 L 1811 97 L 1823 109 L 1825 114 L 1825 471 L 1831 470 L 1976 426 L 2172 391 L 2531 394 L 2536 396 L 2797 398 L 2801 402 L 2837 537 L 2839 542 L 2840 550 L 2945 952 L 2947 1159 L 2960 1179 L 2964 1183 L 2977 1203 L 2981 1207 L 2994 1227 L 2998 1231 L 3011 1251 L 3015 1255 L 3028 1275 L 3032 1279 L 3045 1299 L 3049 1303 L 3062 1323 L 3066 1327 L 3076 1342 L 3080 2238 L 3076 2242 L 3071 2245 L 530 2890 L 526 2886 L 523 2881 L 496 2776 L 494 2771 L 493 2763 L 413 2451 L 411 2446 L 410 2438 L 405 2435 L 384 2440 L 379 2442 L 369 2443 L 327 2453 L 323 2449 L 320 2444 L 300 2370 L 298 2365 L 286 2317 L 290 2313 L 329 2300 L 329 2293 L 293 2150 L 291 2145 L 284 2114 L 282 2109 L 281 2101 L 239 1933 L 237 1928 L 236 1920 L 220 1857 L 218 1852 L 211 1821 L 209 1816 L 190 1732 Z" style="fill:black" id="path-12" class="svg-path"/>
<path d="M 132 620 L 239 614 L 243 610 L 245 594 L 211 136 L 542 112 L 1116 98 L 1116 194 L 330 223 L 323 224 L 319 228 L 316 243 L 348 701 L 352 705 L 370 707 L 397 705 L 404 826 L 397 829 L 246 839 L 242 843 L 239 860 L 290 1609 L 464 2277 L 469 2280 L 477 2281 L 728 2216 L 733 2214 L 741 2213 L 857 2183 L 861 2179 L 863 2169 L 859 2165 L 847 2163 L 794 2177 L 788 2177 L 787 2169 L 777 2131 L 775 2126 L 774 2118 L 762 2073 L 823 2057 L 828 2054 L 831 2049 L 832 2041 L 819 1990 L 826 1987 L 940 1958 L 945 1956 L 953 1955 L 1019 1938 L 1020 1946 L 1182 2574 L 1186 2578 L 1197 2581 L 2462 2262 L 2466 2258 L 2468 2246 L 2389 1934 L 2394 1930 L 2434 1920 L 2439 1918 L 2484 1908 L 2486 1913 L 2487 1920 L 2519 2044 L 2521 2049 L 2522 2057 L 2567 2228 L 2572 2231 L 2582 2232 L 2587 2230 L 2792 2178 L 2793 2185 L 2819 2286 L 2815 2290 L 1110 2723 L 1105 2720 L 1105 2714 L 994 2277 L 991 2272 L 977 2269 L 667 2348 L 662 2350 L 654 2351 L 415 2412 L 410 2414 L 339 2430 L 335 2424 L 319 2365 L 317 2360 L 309 2329 L 316 2325 L 342 2317 L 347 2314 L 350 2309 L 351 2301 L 321 2181 L 319 2176 L 312 2145 L 310 2140 L 309 2132 L 258 1928 L 256 1923 L 255 1915 L 239 1852 L 237 1847 L 236 1839 L 209 1727 Z" style="fill:white" id="path-13" class="svg-path"/>
<path d="M 260 858 L 494 844 L 500 934 L 504 938 L 522 947 L 528 949 L 575 972 L 581 974 L 607 987 L 613 989 L 639 1002 L 645 1004 L 671 1017 L 677 1019 L 703 1032 L 709 1034 L 758 1058 L 764 1060 L 811 1083 L 817 1085 L 843 1098 L 849 1100 L 875 1113 L 881 1115 L 907 1128 L 913 1130 L 939 1143 L 945 1145 L 992 1168 L 998 1170 L 1003 1173 L 999 1186 L 996 1191 L 962 1268 L 959 1273 L 954 1286 L 951 1291 L 946 1304 L 943 1309 L 938 1322 L 935 1327 L 930 1339 L 924 1342 L 749 1384 L 548 1304 L 532 1302 L 294 1318 L 291 1311 Z" style="fill:white" id="path-14" class="svg-path"/>
<path d="M 292 1339 L 542 1323 L 738 1401 L 736 1406 L 735 1413 L 717 1480 L 715 1499 L 731 1725 L 726 1727 L 636 1748 L 631 1750 L 623 1751 L 554 1768 L 549 1770 L 541 1771 L 472 1788 L 467 1790 L 459 1791 L 366 1814 L 311 1603 L 293 1341 Z" style="fill:white" id="path-15" class="svg-path"/>
<path d="M 337 243 L 716 226 L 717 295 L 701 312 L 698 317 L 682 333 L 679 338 L 671 346 L 668 351 L 640 381 L 637 386 L 621 402 L 618 407 L 610 415 L 607 420 L 587 441 L 584 446 L 572 458 L 569 463 L 557 475 L 554 480 L 542 492 L 539 497 L 527 509 L 520 519 L 496 544 L 493 549 L 481 561 L 478 566 L 476 579 L 465 583 L 361 591 Z" style="fill:white" id="path-16" class="svg-path"/>
<path d="M 362 612 L 491 602 L 495 598 L 498 583 L 497 575 L 505 567 L 508 562 L 520 550 L 523 545 L 535 533 L 538 528 L 554 512 L 557 507 L 565 499 L 568 494 L 596 464 L 599 459 L 611 447 L 614 442 L 626 430 L 633 420 L 657 395 L 660 390 L 672 378 L 675 373 L 687 361 L 694 351 L 718 326 L 721 321 L 733 309 L 735 304 L 736 225 L 1123 214 L 1127 218 L 1132 228 L 1136 232 L 1152 257 L 1156 261 L 1177 290 L 1179 295 L 1183 299 L 1189 310 L 1197 319 L 1199 324 L 1206 334 L 1210 338 L 1213 344 L 1217 348 L 1233 373 L 1237 377 L 1243 387 L 1247 391 L 1250 397 L 1254 401 L 1263 416 L 1267 420 L 1270 426 L 1274 430 L 1280 440 L 1284 444 L 1290 455 L 1294 459 L 1300 469 L 1304 473 L 1310 484 L 1314 488 L 1327 508 L 1331 512 L 1337 522 L 1341 526 L 1347 537 L 1351 541 L 1364 561 L 1368 565 L 1374 575 L 1378 579 L 1384 590 L 1392 599 L 1394 604 L 1401 614 L 1405 618 L 1408 624 L 1412 628 L 1414 633 L 1428 653 L 1432 657 L 1441 672 L 1437 676 L 1427 682 L 1423 686 L 1418 689 L 1409 697 L 1404 700 L 1400 704 L 1394 707 L 1390 711 L 1380 718 L 1368 730 L 1358 737 L 1329 765 L 1324 768 L 1304 788 L 1299 791 L 1219 871 L 1216 876 L 1204 888 L 1201 893 L 1193 901 L 1190 906 L 1166 932 L 1156 947 L 1152 951 L 1149 956 L 1141 965 L 1138 970 L 1130 979 L 1127 984 L 1123 988 L 1096 1027 L 1092 1031 L 1089 1036 L 1085 1040 L 1079 1051 L 1075 1055 L 1048 1101 L 1044 1105 L 1017 1151 L 1012 1155 L 996 1147 L 990 1145 L 964 1132 L 958 1130 L 932 1117 L 926 1115 L 900 1102 L 894 1100 L 868 1087 L 862 1085 L 847 1077 L 841 1075 L 815 1062 L 809 1060 L 783 1047 L 777 1045 L 751 1032 L 745 1030 L 728 1021 L 722 1019 L 696 1006 L 690 1004 L 664 991 L 658 989 L 632 976 L 626 974 L 611 966 L 605 964 L 579 951 L 573 949 L 520 924 L 513 829 L 509 825 L 493 823 L 428 827 L 425 820 L 416 691 L 412 687 L 395 684 L 367 686 L 363 615 Z" style="fill:white" id="path-17" class="svg-path"/>
<path d="M 371 1835 L 376 1833 L 501 1803 L 509 1802 L 528 1880 L 530 1885 L 531 1893 L 562 2015 L 564 2020 L 565 2028 L 596 2150 L 598 2155 L 599 2163 L 614 2222 L 606 2225 L 484 2256 L 479 2254 L 478 2246 L 373 1842 L 371 1837 Z" style="fill:white" id="path-18" class="svg-path"/>
<path d="M 428 2430 L 436 2429 L 613 2384 L 618 2382 L 626 2381 L 826 2330 L 831 2328 L 839 2327 L 972 2293 L 977 2296 L 978 2304 L 1085 2726 L 1082 2731 L 1074 2732 L 542 2867 L 538 2860 L 432 2446 L 430 2441 L 429 2433 Z" style="fill:white" id="path-19" class="svg-path"/>
<path d="M 528 1796 L 536 1795 L 719 1750 L 724 1748 L 732 1747 L 737 1750 L 738 1758 L 804 2019 L 806 2024 L 809 2039 L 747 2054 L 742 2057 L 739 2071 L 755 2132 L 757 2137 L 758 2145 L 768 2183 L 640 2216 L 634 2216 L 633 2208 L 618 2149 L 616 2144 L 615 2136 L 584 2014 L 582 2009 L 581 2001 L 530 1799 Z" style="fill:white" id="path-110" class="svg-path"/>
<path d="M 735 1490 L 757 1408 L 760 1403 L 768 1402 L 937 1361 L 942 1358 L 948 1348 L 950 1342 L 953 1337 L 998 1235 L 1001 1230 L 1003 1224 L 1006 1219 L 1011 1206 L 1014 1201 L 1027 1171 L 1031 1166 L 1058 1121 L 1062 1117 L 1099 1056 L 1103 1052 L 1106 1047 L 1110 1043 L 1113 1037 L 1117 1033 L 1130 1013 L 1134 1009 L 1137 1004 L 1145 995 L 1148 990 L 1152 986 L 1155 981 L 1159 977 L 1162 971 L 1170 962 L 1173 957 L 1177 953 L 1180 948 L 1188 940 L 1191 935 L 1203 923 L 1206 918 L 1237 884 L 1240 879 L 1304 815 L 1309 812 L 1329 792 L 1334 789 L 1354 769 L 1359 766 L 1371 754 L 1376 751 L 1392 735 L 1397 733 L 1406 725 L 1411 722 L 1415 718 L 1421 715 L 1429 707 L 1435 704 L 1439 700 L 1444 697 L 1448 693 L 1454 690 L 1458 686 L 1517 647 L 1521 643 L 1571 613 L 1575 609 L 1580 607 L 1669 559 L 1981 445 L 2189 409 L 2526 413 L 2531 415 L 2786 417 L 2787 424 L 2926 957 L 2928 1158 L 2921 1159 L 2852 1177 L 2847 1179 L 2839 1180 L 2588 1245 L 2583 1247 L 2575 1248 L 2064 1380 L 2059 1382 L 2051 1383 L 1105 1627 L 1100 1629 L 1092 1630 L 961 1664 L 956 1667 L 953 1672 L 952 1680 L 977 1777 L 979 1782 L 980 1790 L 1012 1913 L 1010 1918 L 939 1936 L 934 1938 L 926 1939 L 895 1947 L 890 1949 L 882 1950 L 813 1968 L 812 1961 L 752 1724 L 736 1493 Z" style="fill:white" id="path-111" class="svg-path"/>
<path d="M 975 1682 L 982 1681 L 1370 1581 L 1375 1579 L 1383 1578 L 1413 1570 L 1416 1575 L 1637 2445 L 1630 2449 L 1199 2558 L 1198 2551 L 975 1684 Z" style="fill:white" id="path-112" class="svg-path"/>
<path d="M 1136 98 L 1727 96 L 1790 109 L 1800 114 L 1804 118 L 1806 478 L 1801 480 L 1795 481 L 1752 497 L 1747 500 L 1686 527 L 1681 530 L 1675 532 L 1649 545 L 1643 547 L 1628 556 L 1622 558 L 1561 593 L 1556 597 L 1511 624 L 1507 628 L 1481 643 L 1477 647 L 1472 650 L 1468 654 L 1462 657 L 1456 657 L 1454 652 L 1444 637 L 1440 633 L 1434 623 L 1430 619 L 1424 608 L 1416 599 L 1414 594 L 1407 584 L 1403 580 L 1387 555 L 1379 546 L 1377 541 L 1359 517 L 1357 512 L 1343 492 L 1339 488 L 1323 463 L 1319 459 L 1313 449 L 1309 445 L 1306 439 L 1302 435 L 1286 410 L 1282 406 L 1276 396 L 1272 392 L 1266 381 L 1262 377 L 1246 352 L 1242 348 L 1239 343 L 1235 339 L 1229 328 L 1221 319 L 1219 314 L 1215 310 L 1209 299 L 1205 295 L 1192 275 L 1188 271 L 1182 261 L 1178 257 L 1172 246 L 1164 237 L 1162 232 L 1155 222 L 1151 218 L 1148 212 L 1144 208 L 1141 203 L 1137 199 Z" style="fill:white" id="path-113" class="svg-path"/>
<path d="M 1435 1564 L 1657 2439 L 1662 2442 L 2328 2274 L 2325 2267 L 2321 2251 L 2319 2246 L 2318 2238 L 2287 2118 L 2285 2113 L 2284 2105 L 2220 1856 L 2218 1851 L 2217 1843 L 2186 1723 L 2184 1718 L 2183 1710 L 2152 1590 L 2150 1585 L 2149 1577 L 2118 1457 L 2116 1452 L 2115 1444 L 2103 1398 L 2101 1393 L 2070 1400 L 2065 1402 L 2057 1403 L 1440 1562 Z" style="fill:white" id="path-114" class="svg-path"/>
<path d="M 2121 1387 L 2329 1334 L 2334 1332 L 2342 1331 L 2853 1199 L 2858 1197 L 2866 1196 L 2934 1178 L 2939 1181 L 2952 1201 L 2956 1205 L 2969 1225 L 2973 1229 L 2979 1239 L 2983 1243 L 2986 1249 L 2990 1253 L 2993 1259 L 2997 1263 L 3003 1273 L 3007 1277 L 3010 1283 L 3014 1287 L 3023 1302 L 3031 1311 L 3040 1326 L 3048 1335 L 3057 1350 L 3059 1745 L 2890 1786 L 2885 1788 L 2877 1789 L 2833 1800 L 2828 1802 L 2820 1803 L 2690 1835 L 2685 1837 L 2677 1838 L 2633 1849 L 2628 1851 L 2620 1852 L 2490 1884 L 2485 1886 L 2477 1887 L 2433 1898 L 2428 1900 L 2420 1901 L 2262 1940 L 2261 1932 L 2240 1850 L 2238 1845 L 2237 1837 L 2206 1717 L 2204 1712 L 2203 1704 L 2172 1584 L 2170 1579 L 2169 1571 L 2138 1451 L 2136 1446 L 2135 1438 L 2123 1392 Z" style="fill:white" id="path-115" class="svg-path"/>
<path d="M 2268 1960 L 2276 1959 L 2367 1936 L 2444 2241 L 2438 2245 L 2346 2268 L 2341 2245 L 2339 2240 L 2338 2232 L 2307 2112 L 2305 2107 L 2304 2099 L 2273 1979 L 2271 1974 L 2270 1966 Z" style="fill:white" id="path-116" class="svg-path"/>
<path d="M 2504 1902 L 2512 1901 L 2577 1885 L 2582 1883 L 2590 1882 L 2634 1871 L 2639 1869 L 2647 1868 L 2704 1854 L 2709 1858 L 2785 2155 L 2778 2159 L 2740 2169 L 2735 2171 L 2727 2172 L 2585 2208 L 2582 2201 L 2541 2043 L 2539 2038 L 2538 2030 L 2505 1904 Z" style="fill:white" id="path-117" class="svg-path"/>
<path d="M 2728 1848 L 2807 2156 L 2809 2161 L 2839 2280 L 2845 2283 L 3061 2228 L 3059 1767 L 3051 1768 L 2839 1820 L 2834 1822 L 2826 1823 L 2782 1834 L 2777 1836 L 2733 1846 Z" style="fill:white" id="path-118" class="svg-path"/>
<text x="1596" y="1483" id="text-12" class="svg-text"></text>
<text x="1475" y="1410" id="text-13" class="svg-text"></text>
<text x="570" y="1160" id="text-14" class="svg-text"></text>
<text x="515" y="1568" id="text-15" class="svg-text"></text>
<text x="490" y="380" id="text-16" class="svg-text"></text>
<text x="901" y="684" id="text-17" class="svg-text"></text>
<text x="492" y="2029" id="text-18" class="svg-text"></text>
<text x="756" y="2580" id="text-19" class="svg-text"></text>
<text x="668" y="1981" id="text-110" class="svg-text"></text>
<text x="1951" y="1008" id="text-111" class="svg-text"></text>
<text x="1306" y="2064" id="text-112" class="svg-text"></text>
<text x="1521" y="346" id="text-113" class="svg-text"></text>
<text x="1881" y="1917" id="text-114" class="svg-text"></text>
<text x="2590" y="1559" id="text-115" class="svg-text"></text>
<text x="2356" y="2102" id="text-116" class="svg-text"></text>
<text x="2644" y="2031" id="text-117" class="svg-text"></text>
<text x="2894" y="2025" id="text-118" class="svg-text"></text>
</svg>
